<mxfile host="app.diagrams.net" agent="Mozilla/5.0 (Windows NT 10.0; Win64; x64) AppleWebKit/537.36 (KHTML, like Gecko) Chrome/129.0.0.0 Safari/537.36" version="24.7.16">
  <diagram name="Page-1" id="8cHhYuuivu9-ov1vct13">
    <mxGraphModel dx="1050" dy="653" grid="1" gridSize="10" guides="1" tooltips="1" connect="1" arrows="1" fold="1" page="1" pageScale="1" pageWidth="850" pageHeight="1100" math="0" shadow="0">
      <root>
        <mxCell id="0" />
        <mxCell id="1" parent="0" />
        <mxCell id="hPDHgxtObdoQxe_T5j2g-1" value="Program chooses&amp;nbsp; Random Num between&amp;nbsp;&lt;span style=&quot;background-color: initial;&quot;&gt;1-10&amp;nbsp;&lt;/span&gt;" style="rounded=0;whiteSpace=wrap;html=1;" vertex="1" parent="1">
          <mxGeometry x="360" y="60" width="120" height="60" as="geometry" />
        </mxCell>
        <mxCell id="hPDHgxtObdoQxe_T5j2g-2" value="User Input of Guessing Number for Variable &quot;NUMBER&quot;" style="rounded=0;whiteSpace=wrap;html=1;" vertex="1" parent="1">
          <mxGeometry x="360" y="273.02" width="120" height="60" as="geometry" />
        </mxCell>
        <mxCell id="hPDHgxtObdoQxe_T5j2g-3" value="" style="endArrow=classic;html=1;rounded=0;" edge="1" parent="1">
          <mxGeometry width="50" height="50" relative="1" as="geometry">
            <mxPoint x="360" y="333.02" as="sourcePoint" />
            <mxPoint x="320" y="360" as="targetPoint" />
          </mxGeometry>
        </mxCell>
        <mxCell id="hPDHgxtObdoQxe_T5j2g-4" value="Correct Guess" style="edgeLabel;html=1;align=center;verticalAlign=middle;resizable=0;points=[];" vertex="1" connectable="0" parent="hPDHgxtObdoQxe_T5j2g-3">
          <mxGeometry x="-0.095" y="1" relative="1" as="geometry">
            <mxPoint as="offset" />
          </mxGeometry>
        </mxCell>
        <mxCell id="hPDHgxtObdoQxe_T5j2g-5" value="" style="endArrow=classic;html=1;rounded=0;" edge="1" parent="1">
          <mxGeometry width="50" height="50" relative="1" as="geometry">
            <mxPoint x="480" y="333.02" as="sourcePoint" />
            <mxPoint x="520" y="360" as="targetPoint" />
          </mxGeometry>
        </mxCell>
        <mxCell id="hPDHgxtObdoQxe_T5j2g-6" value="Incorrect Guess" style="edgeLabel;html=1;align=center;verticalAlign=middle;resizable=0;points=[];" vertex="1" connectable="0" parent="hPDHgxtObdoQxe_T5j2g-5">
          <mxGeometry x="-0.105" relative="1" as="geometry">
            <mxPoint as="offset" />
          </mxGeometry>
        </mxCell>
        <mxCell id="hPDHgxtObdoQxe_T5j2g-7" value="Print&amp;nbsp;&lt;div&gt;&quot;CORRECT&quot;&lt;/div&gt;" style="rhombus;whiteSpace=wrap;html=1;" vertex="1" parent="1">
          <mxGeometry x="270" y="360" width="100" height="60" as="geometry" />
        </mxCell>
        <mxCell id="hPDHgxtObdoQxe_T5j2g-8" value="Print&lt;div&gt;&quot;INCORRECT&quot;&lt;/div&gt;" style="rhombus;whiteSpace=wrap;html=1;" vertex="1" parent="1">
          <mxGeometry x="470" y="360" width="100" height="80" as="geometry" />
        </mxCell>
        <mxCell id="hPDHgxtObdoQxe_T5j2g-9" value="Number Chosen Assigned to Variable&lt;div&gt;&quot;NUMBER&quot;&lt;/div&gt;" style="rounded=0;whiteSpace=wrap;html=1;" vertex="1" parent="1">
          <mxGeometry x="360" y="160" width="120" height="60" as="geometry" />
        </mxCell>
        <mxCell id="hPDHgxtObdoQxe_T5j2g-10" value="" style="endArrow=classic;html=1;rounded=0;" edge="1" parent="1" target="hPDHgxtObdoQxe_T5j2g-2">
          <mxGeometry width="50" height="50" relative="1" as="geometry">
            <mxPoint x="420" y="220" as="sourcePoint" />
            <mxPoint x="470" y="170" as="targetPoint" />
          </mxGeometry>
        </mxCell>
        <mxCell id="hPDHgxtObdoQxe_T5j2g-11" value="" style="endArrow=classic;html=1;rounded=0;" edge="1" parent="1" target="hPDHgxtObdoQxe_T5j2g-9">
          <mxGeometry width="50" height="50" relative="1" as="geometry">
            <mxPoint x="420" y="120" as="sourcePoint" />
            <mxPoint x="470" y="70" as="targetPoint" />
          </mxGeometry>
        </mxCell>
        <mxCell id="hPDHgxtObdoQxe_T5j2g-12" value="" style="endArrow=classic;html=1;rounded=0;exitX=0.5;exitY=1;exitDx=0;exitDy=0;" edge="1" parent="1" source="hPDHgxtObdoQxe_T5j2g-7">
          <mxGeometry width="50" height="50" relative="1" as="geometry">
            <mxPoint x="400" y="460" as="sourcePoint" />
            <mxPoint x="320" y="480" as="targetPoint" />
          </mxGeometry>
        </mxCell>
        <mxCell id="hPDHgxtObdoQxe_T5j2g-13" value="End&amp;nbsp;&lt;div&gt;Program&lt;/div&gt;" style="rhombus;whiteSpace=wrap;html=1;" vertex="1" parent="1">
          <mxGeometry x="280" y="480" width="80" height="80" as="geometry" />
        </mxCell>
        <mxCell id="hPDHgxtObdoQxe_T5j2g-14" value="" style="endArrow=classic;html=1;rounded=0;exitX=0;exitY=0.5;exitDx=0;exitDy=0;" edge="1" parent="1" source="hPDHgxtObdoQxe_T5j2g-8">
          <mxGeometry width="50" height="50" relative="1" as="geometry">
            <mxPoint x="440" y="480" as="sourcePoint" />
            <mxPoint x="410" y="430" as="targetPoint" />
          </mxGeometry>
        </mxCell>
        <mxCell id="hPDHgxtObdoQxe_T5j2g-15" value="&lt;font style=&quot;font-size: 9px;&quot;&gt;If More than &quot;NUMBER&quot;&lt;/font&gt;" style="edgeLabel;html=1;align=center;verticalAlign=middle;resizable=0;points=[];" vertex="1" connectable="0" parent="hPDHgxtObdoQxe_T5j2g-14">
          <mxGeometry x="-0.1639" y="-2" relative="1" as="geometry">
            <mxPoint x="-24" as="offset" />
          </mxGeometry>
        </mxCell>
        <mxCell id="hPDHgxtObdoQxe_T5j2g-16" value="" style="endArrow=classic;html=1;rounded=0;exitX=1;exitY=0.5;exitDx=0;exitDy=0;" edge="1" parent="1" source="hPDHgxtObdoQxe_T5j2g-8">
          <mxGeometry width="50" height="50" relative="1" as="geometry">
            <mxPoint x="590" y="400" as="sourcePoint" />
            <mxPoint x="620" y="440" as="targetPoint" />
          </mxGeometry>
        </mxCell>
        <mxCell id="hPDHgxtObdoQxe_T5j2g-17" value="&lt;font style=&quot;font-size: 9px;&quot;&gt;If Less Than &quot;NUMBER&quot;&lt;/font&gt;" style="edgeLabel;html=1;align=center;verticalAlign=middle;resizable=0;points=[];" vertex="1" connectable="0" parent="hPDHgxtObdoQxe_T5j2g-16">
          <mxGeometry x="-0.1392" relative="1" as="geometry">
            <mxPoint x="9" y="3" as="offset" />
          </mxGeometry>
        </mxCell>
        <mxCell id="hPDHgxtObdoQxe_T5j2g-18" value="&lt;font size=&quot;1&quot;&gt;Print&lt;/font&gt;&lt;div&gt;&lt;font size=&quot;1&quot;&gt;&quot;Too Low&quot;&lt;/font&gt;&lt;/div&gt;" style="ellipse;whiteSpace=wrap;html=1;aspect=fixed;" vertex="1" parent="1">
          <mxGeometry x="375" y="430" width="50" height="50" as="geometry" />
        </mxCell>
        <mxCell id="hPDHgxtObdoQxe_T5j2g-19" value="&lt;font style=&quot;font-size: 11px;&quot;&gt;Print&amp;nbsp;&lt;/font&gt;&lt;div&gt;&lt;span style=&quot;background-color: initial;&quot;&gt;&lt;font style=&quot;font-size: 10px;&quot;&gt;&quot;Too Low&quot;&lt;/font&gt;&lt;/span&gt;&lt;/div&gt;" style="ellipse;whiteSpace=wrap;html=1;aspect=fixed;" vertex="1" parent="1">
          <mxGeometry x="600" y="440" width="50" height="50" as="geometry" />
        </mxCell>
        <mxCell id="hPDHgxtObdoQxe_T5j2g-20" value="" style="endArrow=none;html=1;rounded=0;" edge="1" parent="1">
          <mxGeometry width="50" height="50" relative="1" as="geometry">
            <mxPoint x="510" y="530" as="sourcePoint" />
            <mxPoint x="600" y="470" as="targetPoint" />
          </mxGeometry>
        </mxCell>
        <mxCell id="hPDHgxtObdoQxe_T5j2g-21" value="" style="endArrow=none;html=1;rounded=0;" edge="1" parent="1">
          <mxGeometry width="50" height="50" relative="1" as="geometry">
            <mxPoint x="510" y="530" as="sourcePoint" />
            <mxPoint x="420" y="470" as="targetPoint" />
          </mxGeometry>
        </mxCell>
        <mxCell id="hPDHgxtObdoQxe_T5j2g-22" value="" style="endArrow=classic;html=1;rounded=0;entryX=1.032;entryY=0.361;entryDx=0;entryDy=0;entryPerimeter=0;" edge="1" parent="1" target="hPDHgxtObdoQxe_T5j2g-2">
          <mxGeometry width="50" height="50" relative="1" as="geometry">
            <mxPoint x="510" y="530" as="sourcePoint" />
            <mxPoint x="700" y="570" as="targetPoint" />
            <Array as="points">
              <mxPoint x="650" y="560" />
              <mxPoint x="730" y="450" />
            </Array>
          </mxGeometry>
        </mxCell>
        <mxCell id="hPDHgxtObdoQxe_T5j2g-23" value="Run Code" style="rounded=0;whiteSpace=wrap;html=1;" vertex="1" parent="1">
          <mxGeometry x="360" width="120" height="20" as="geometry" />
        </mxCell>
        <mxCell id="hPDHgxtObdoQxe_T5j2g-24" value="" style="endArrow=classic;html=1;rounded=0;entryX=0.5;entryY=0;entryDx=0;entryDy=0;" edge="1" parent="1" target="hPDHgxtObdoQxe_T5j2g-1">
          <mxGeometry width="50" height="50" relative="1" as="geometry">
            <mxPoint x="420" y="20" as="sourcePoint" />
            <mxPoint x="470" y="-30" as="targetPoint" />
          </mxGeometry>
        </mxCell>
      </root>
    </mxGraphModel>
  </diagram>
</mxfile>
